/* XPM */
static char *top_xpm[] = {
"5 29 16 1",
" 	c None",
"1	c #605E5C",
"2	c #5B5A54",
"3	c #585752",
"4	c #575651",
"5	c #54534F",
"6	c #52514C",
"7	c #504E4A",
"8	c #4D4C47",
"9	c #4B4A45",
"A	c #484743",
"B	c #464540",
"C	c #43423E",
"D	c #41403C",
"E	c #3E3D39",
"F	c #3C3B37",
"1    ",
"211  ",
"3441 ",
"55551",
"66661",
"77777",
"88888",
"88888",
"99999",
"AAAAA",
"BBBBB",
"CCCCC",
"DDDDD",
"EEEEE",
"FFFFF",
"FFFFF",
"FFFFF",
"FFFFF",
"FFFFF",
"FFFFF",
"FFFFF",
"FFFFF",
"FFFFF",
"FFFFF",
"FFFFF",
"FFFFF",
"FFFFF",
"FFFFF",
"FFFFF"
};
